<svg width="24" height="24" viewBox="0 0 24 24" fill="none" xmlns="http://www.w3.org/2000/svg">
<path d="M3 22V20.75C3 18.4294 3.92187 16.2038 5.56282 14.5628C7.20376 12.9219 9.42936 12 11.75 12M11.75 12C14.0706 12 16.2962 12.9219 17.9372 14.5628C19.5781 16.2038 20.5 18.4294 20.5 20.75V22M11.75 12C13.0761 12 14.3479 11.4732 15.2855 10.5355C16.2232 9.59785 16.75 8.32608 16.75 7C16.75 5.67392 16.2232 4.40215 15.2855 3.46447C14.3479 2.52678 13.0761 2 11.75 2C10.4239 2 9.15215 2.52678 8.21447 3.46447C7.27678 4.40215 6.75 5.67392 6.75 7C6.75 8.32608 7.27678 9.59785 8.21447 10.5355C9.15215 11.4732 10.4239 12 11.75 12Z" stroke="#252525" stroke-width="1.5" stroke-linecap="round" stroke-linejoin="round"/>
</svg>
