<svg width="20" height="20" viewBox="0 0 20 20" fill="none" xmlns="http://www.w3.org/2000/svg">
<g clip-path="url(#clip0_5013_75)">
<path d="M18.4001 3.19922C17.7761 3.56962 16.5241 4.07442 15.7881 4.22002C15.7665 4.22562 15.7489 4.23282 15.7281 4.23842C15.0777 3.59682 14.1865 3.19922 13.2001 3.19922C11.2121 3.19922 9.60015 4.81122 9.60015 6.79922C9.60015 6.90402 9.59135 7.09682 9.60015 7.19922C6.91775 7.19922 4.87615 5.79442 3.41215 3.99922C3.25295 4.39922 3.18335 5.03122 3.18335 5.62482C3.18335 6.74562 4.05935 7.84642 5.42335 8.52882C5.17215 8.59362 4.89535 8.64002 4.60735 8.64002C4.14255 8.64002 3.65055 8.51762 3.20015 8.14642C3.20015 8.16002 3.20015 8.17282 3.20015 8.18722C3.20015 9.75362 4.86255 10.82 6.34095 11.1168C6.04095 11.2936 5.43615 11.3112 5.14095 11.3112C4.93295 11.3112 4.19695 11.216 4.00015 11.1792C4.41135 12.4632 5.89455 13.1848 7.30815 13.2104C6.20255 14.0776 5.43535 14.3992 3.17135 14.3992H2.40015C3.83055 15.316 5.65215 16 7.47775 16C13.4217 16 16.8001 11.4696 16.8001 7.19922C16.8001 7.13042 16.7985 6.98642 16.7961 6.84162C16.7961 6.82722 16.8001 6.81362 16.8001 6.79922C16.8001 6.77762 16.7937 6.75682 16.7937 6.73522C16.7913 6.62642 16.7889 6.52482 16.7865 6.47202C17.4185 6.01602 17.9665 5.44722 18.4001 4.79922C17.8201 5.05682 17.1977 5.22962 16.5441 5.30802C17.2113 4.90802 18.1593 3.95442 18.4001 3.19922Z" fill="#7B7B7B"/>
</g>
<defs>
<clipPath id="clip0_5013_75">
<rect width="20" height="20" rx="10" fill="white"/>
</clipPath>
</defs>
</svg>
