<svg width="20" height="20" viewBox="0 0 20 20" fill="none" xmlns="http://www.w3.org/2000/svg">
<g clip-path="url(#clip0_5013_78)">
<path d="M7.19995 2.3999C4.99115 2.3999 3.19995 4.1911 3.19995 6.3999V12.7999C3.19995 15.0087 4.99115 16.7999 7.19995 16.7999H13.6C15.8088 16.7999 17.6 15.0087 17.6 12.7999V6.3999C17.6 4.1911 15.8088 2.3999 13.6 2.3999H7.19995ZM15.2 3.9999C15.6416 3.9999 16 4.3583 16 4.7999C16 5.2415 15.6416 5.5999 15.2 5.5999C14.7584 5.5999 14.4 5.2415 14.4 4.7999C14.4 4.3583 14.7584 3.9999 15.2 3.9999ZM10.4 5.5999C12.6088 5.5999 14.4 7.3911 14.4 9.5999C14.4 11.8087 12.6088 13.5999 10.4 13.5999C8.19115 13.5999 6.39995 11.8087 6.39995 9.5999C6.39995 7.3911 8.19115 5.5999 10.4 5.5999ZM10.4 7.1999C9.76343 7.1999 9.15298 7.45276 8.70289 7.90285C8.25281 8.35293 7.99995 8.96338 7.99995 9.5999C7.99995 10.2364 8.25281 10.8469 8.70289 11.297C9.15298 11.747 9.76343 11.9999 10.4 11.9999C11.0365 11.9999 11.6469 11.747 12.097 11.297C12.5471 10.8469 12.8 10.2364 12.8 9.5999C12.8 8.96338 12.5471 8.35293 12.097 7.90285C11.6469 7.45276 11.0365 7.1999 10.4 7.1999Z" fill="#7B7B7B"/>
</g>
<defs>
<clipPath id="clip0_5013_78">
<rect width="20" height="20" rx="10" fill="white"/>
</clipPath>
</defs>
</svg>
