<svg width="20" height="20" viewBox="0 0 20 20" fill="none" xmlns="http://www.w3.org/2000/svg">
<path d="M5.3437 1.6001L6.52651 5.8751V7.9251H7.55151V5.8751L8.74995 1.6001H7.71714L7.28745 3.54541C7.16665 4.11341 7.08984 4.51711 7.05464 4.75791H7.02339C6.97299 4.42111 6.89618 4.0144 6.79058 3.5376L6.37651 1.6001H5.3437ZM9.94526 3.21416C9.59806 3.21416 9.31824 3.28201 9.10464 3.42041C8.89104 3.55801 8.73356 3.77819 8.63276 4.07979C8.53276 4.38139 8.48276 4.78062 8.48276 5.27822V5.9501C8.48276 6.4421 8.52601 6.83611 8.61401 7.13291C8.70201 7.42971 8.85053 7.64836 9.05933 7.78916C9.26813 7.92996 9.55543 8.0001 9.92183 8.0001C10.2786 8.0001 10.5623 7.93069 10.7703 7.79229C10.9783 7.65389 11.129 7.4368 11.2218 7.1376C11.3146 6.8384 11.3609 6.4429 11.3609 5.9501V5.27822C11.3609 4.78142 11.3139 4.38367 11.2187 4.08447C11.1235 3.78607 10.972 3.5659 10.7656 3.4251C10.5592 3.2843 10.2869 3.21416 9.94526 3.21416ZM11.9031 3.30479V6.75635C11.9031 7.18355 11.9747 7.49774 12.1203 7.69854C12.2659 7.89934 12.492 8.0001 12.7984 8.0001C13.24 8.0001 13.5729 7.78667 13.7937 7.35947H13.8156L13.9062 7.9251H14.7203V3.30479H13.6812V6.9751C13.6412 7.0607 13.58 7.13084 13.4968 7.18604C13.4136 7.24204 13.3279 7.26885 13.2375 7.26885C13.1319 7.26885 13.0565 7.2256 13.0109 7.1376C12.9653 7.0496 12.9421 6.90181 12.9421 6.69541V3.30479H11.9031ZM9.92183 3.92979C10.0674 3.92979 10.1705 4.00587 10.2281 4.15947C10.2857 4.31227 10.314 4.5556 10.314 4.8876V6.32666C10.314 6.66826 10.2857 6.91532 10.2281 7.06572C10.1705 7.21612 10.0682 7.29149 9.92339 7.29229C9.77779 7.29229 9.67703 7.21612 9.62183 7.06572C9.56583 6.91532 9.53901 6.66826 9.53901 6.32666V4.8876C9.53901 4.5564 9.56735 4.31307 9.62495 4.15947C9.68255 4.00667 9.78103 3.92979 9.92183 3.92979ZM4.79995 8.8001C3.91995 8.8001 3.19995 9.5201 3.19995 10.4001V16.0001C3.19995 16.8801 3.91995 17.6001 4.79995 17.6001H16C16.88 17.6001 17.6 16.8801 17.6 16.0001V10.4001C17.6 9.5201 16.88 8.8001 16 8.8001H4.79995ZM10.439 10.4001H11.2843V12.4548H11.2906C11.3666 12.306 11.4756 12.1866 11.6156 12.0954C11.7556 12.0042 11.9071 11.9595 12.0687 11.9595C12.2767 11.9595 12.4394 12.0147 12.5578 12.1251C12.6762 12.2355 12.7628 12.4139 12.8156 12.6595C12.8684 12.9059 12.8937 13.2477 12.8937 13.6845V14.3017H12.8953C12.8953 14.8833 12.8243 15.3093 12.6843 15.5829C12.5443 15.8565 12.3264 15.9938 12.0296 15.9938C11.864 15.9938 11.7141 15.9558 11.5781 15.8798C11.4421 15.8038 11.3398 15.6993 11.2718 15.5673H11.2531L11.164 15.936H10.439V10.4001ZM5.18901 10.597H7.79058V11.3048H6.9187V15.936H6.06089V11.3048H5.18901V10.597ZM14.4781 11.961C14.7789 11.961 15.0102 12.0163 15.1718 12.1267C15.3326 12.2371 15.4461 12.4095 15.5125 12.6423C15.5781 12.8759 15.6109 13.1983 15.6109 13.6095V14.2782H14.1421V14.4767C14.1421 14.7271 14.1488 14.9144 14.164 15.0392C14.1792 15.164 14.2098 15.2558 14.2562 15.3126C14.3026 15.3702 14.3742 15.3985 14.4718 15.3985C14.603 15.3985 14.6933 15.347 14.7421 15.2454C14.7909 15.1438 14.8178 14.9752 14.8218 14.7376L15.5796 14.7813C15.5836 14.8149 15.5859 14.8628 15.5859 14.922C15.5859 15.2828 15.4866 15.5522 15.289 15.7298C15.0914 15.9082 14.8139 15.997 14.4531 15.997C14.0203 15.997 13.7165 15.8604 13.5421 15.5892C13.3677 15.318 13.2812 14.8986 13.2812 14.3298V13.6485C13.2812 13.0629 13.3715 12.6353 13.5515 12.3657C13.7315 12.0961 14.0413 11.961 14.4781 11.961ZM7.52808 12.036H8.40776V14.9001C8.40776 15.0737 8.42718 15.1984 8.46558 15.272C8.50398 15.3464 8.5666 15.3829 8.6562 15.3829C8.7322 15.3829 8.80691 15.3598 8.87651 15.3126C8.94691 15.2662 8.9968 15.2065 9.0312 15.1345V12.036H9.91089V15.936H9.90933H9.22183L9.14683 15.4579H9.12651C8.93931 15.8195 8.65949 16.0001 8.28589 16.0001C8.02669 16.0001 7.83721 15.915 7.71401 15.7454C7.59081 15.5758 7.52808 15.3101 7.52808 14.9501V12.036ZM14.4593 12.5548C14.3657 12.5548 14.2963 12.5832 14.2515 12.6376C14.2067 12.6928 14.1769 12.7831 14.1625 12.9079C14.1473 13.0327 14.1406 13.2223 14.1406 13.4767V13.7563H14.7828V13.4767C14.7828 13.2263 14.7746 13.0375 14.7578 12.9079C14.7418 12.7783 14.7104 12.6873 14.6656 12.6345C14.6208 12.5817 14.5529 12.5548 14.4593 12.5548ZM11.6734 12.5829C11.5886 12.5829 11.511 12.6165 11.439 12.6845C11.367 12.7525 11.3155 12.8398 11.2859 12.9454V15.1595C11.3243 15.2275 11.3743 15.2782 11.4359 15.3126C11.4975 15.3462 11.5631 15.3642 11.6359 15.3642C11.7295 15.3642 11.8026 15.3306 11.8578 15.2626C11.913 15.1946 11.9533 15.0804 11.9765 14.9188C11.9997 14.758 12.0109 14.5341 12.0109 14.2501V13.7485C12.0109 13.4429 12.002 13.2079 11.9828 13.0423C11.9636 12.8767 11.9292 12.7572 11.8812 12.6876C11.8324 12.618 11.763 12.5829 11.6734 12.5829Z" fill="#7B7B7B"/>
</svg>
