<svg width="16" height="16" viewBox="0 0 16 16" fill="none" xmlns="http://www.w3.org/2000/svg">
<path d="M6.55994 0.0800781C3.18354 0.0800781 0.439941 2.82367 0.439941 6.20008C0.439941 9.57648 3.18354 12.3201 6.55994 12.3201C7.89588 12.3201 9.13057 11.8898 10.1374 11.1613L14.8737 15.8863L15.8862 14.8738L11.2062 10.1826C12.1259 9.11102 12.6799 7.72023 12.6799 6.20008C12.6799 2.82367 9.93635 0.0800781 6.55994 0.0800781ZM6.55994 0.800078C9.54682 0.800078 11.9599 3.2132 11.9599 6.20008C11.9599 9.18695 9.54682 11.6001 6.55994 11.6001C3.57307 11.6001 1.15994 9.18695 1.15994 6.20008C1.15994 3.2132 3.57307 0.800078 6.55994 0.800078Z" fill="#7B7B7B"/>
</svg>
